# Apple ModelIO OBJ File: pokadotEnv
mtllib pokadotEnv.mtl
g 
v -6.91664 -1e-06 6.91664
v 6.91664 -1e-06 6.91664
v 6.91664 1e-06 -6.91664
v -6.91664 1e-06 -6.91664
v 6.91664 -2.74329 -6.91665
v -6.91664 -2.74329 -6.91665
v -6.91664 -2.74329 6.91664
v 6.91664 -2.74329 6.91664
vn -0 1 -0
vn -0 -0 -1
vn -0 -0 1
vn 1 -0 -0
vn -1 -0 -0
vt 0 0.557649
vt 0.557649 0.557649
vt 0.557649 0
vt 0 0
vt 0.889412 0.557649
vt 1 0.557649
vt 1 0
vt 0.889412 0
vt 0.668236 0.557649
vt 0.668236 0
vt 0.778824 0.557649
vt 0.778824 0
usemtl material_1
f 1/1/1 2/2/1 3/3/1 4/4/1 
f 3/5/2 5/6/2 6/7/2 4/8/2 
f 1/2/3 7/9/3 8/10/3 2/3/3 
f 2/9/4 8/11/4 5/12/4 3/10/4 
f 4/11/5 6/5/5 7/8/5 1/12/5 
s off
